<?xml version="1.0" encoding="UTF-8" standalone="no"?>
<!-- Created with Inkscape (http://www.inkscape.org/) -->

<svg
   width="512"
   height="512"
   viewBox="0 0 512 512"
   version="1.1"
   id="svg1"
   inkscape:version="1.3.2 (091e20e, 2023-11-25, custom)"
   sodipodi:docname="ink-stc.svg"
   xmlns:inkscape="http://www.inkscape.org/namespaces/inkscape"
   xmlns:sodipodi="http://sodipodi.sourceforge.net/DTD/sodipodi-0.dtd"
   xmlns="http://www.w3.org/2000/svg"
   xmlns:svg="http://www.w3.org/2000/svg">
  <sodipodi:namedview
     id="namedview1"
     pagecolor="#ffffff"
     bordercolor="#000000"
     borderopacity="0.25"
     inkscape:showpageshadow="2"
     inkscape:pageopacity="0.0"
     inkscape:pagecheckerboard="0"
     inkscape:deskcolor="#d1d1d1"
     inkscape:document-units="px"
     inkscape:zoom="1"
     inkscape:cx="258.5"
     inkscape:cy="218.5"
     inkscape:window-width="1920"
     inkscape:window-height="991"
     inkscape:window-x="-9"
     inkscape:window-y="-9"
     inkscape:window-maximized="1"
     inkscape:current-layer="layer1" />
  <defs
     id="defs1" />
  <g
     inkscape:label="Layer 1"
     inkscape:groupmode="layer"
     id="layer1">
    <path
       style="fill:none;stroke:#000000;stroke-width:20;stroke-linecap:round;stroke-linejoin:round;stroke-dasharray:none"
       d="M 85.262942,202.74318 C 78.21409,58.732181 230.83822,37.650539 244.40434,158.94294 c 8.33747,74.54391 -16.6178,85.54414 -24.14446,125.03743 -10.20621,53.5532 4.90097,78.80391 16.08665,116.31082 3.59362,12.04985 4.02891,44.69411 -33.23839,51.84518 -37.2673,7.15105 -53.38287,-36.64918 -53.38287,-36.64918 L 122.53024,327.88674 C 109.86973,282.88238 87.688661,252.30154 85.262942,202.74318 Z"
       id="path1"
       sodipodi:nodetypes="sssssccs" />
    <g
       id="g1"
       transform="translate(26.858599,-53.630495)">
      <g
         id="g2"
         transform="matrix(1.2068156,0,0,1.2068156,147.40378,120.64795)">
        <path
           d="M 159.845,147.251 V 34.744 C 159.845,15.586 144.255,0 125.093,0 105.934,0 90.347,15.586 90.347,34.744 V 147.25 c -14.234,10.843 -22.617,27.59 -22.617,45.575 0,31.631 25.732,57.364 57.363,57.364 31.633,0 57.367,-25.733 57.367,-57.364 0,-17.983 -8.383,-34.73 -22.615,-45.574 z m -34.752,87.938 c -23.359,0 -42.363,-19.004 -42.363,-42.364 0,-14.294 7.188,-27.537 19.228,-35.425 2.115,-1.386 3.39,-3.745 3.39,-6.273 V 34.744 c 0,-10.887 8.858,-19.744 19.746,-19.744 10.892,0 19.752,8.857 19.752,19.744 v 116.383 c 0,2.529 1.274,4.887 3.39,6.273 12.038,7.889 19.226,21.132 19.226,35.425 -0.002,23.36 -19.008,42.364 -42.369,42.364 z"
           id="path1-9" />
        <path
           d="M 132.595,169.042 V 69.924 c 0,-4.142 -3.357,-7.5 -7.5,-7.5 -4.143,0 -7.5,3.358 -7.5,7.5 v 99.118 c -10.104,3.183 -17.43,12.622 -17.43,23.783 0,13.767 11.16,24.931 24.93,24.931 13.773,0 24.932,-11.164 24.932,-24.931 -10e-4,-11.162 -7.327,-20.602 -17.432,-23.783 z"
           id="path2" />
      </g>
      <path
         style="font-variation-settings:normal;opacity:1;fill:none;fill-opacity:1;stroke:#000000;stroke-width:20;stroke-linecap:round;stroke-linejoin:round;stroke-miterlimit:4;stroke-dasharray:none;stroke-dashoffset:0;stroke-opacity:1"
         d="m 337.01526,186.60342 h 34.44986"
         id="path17" />
      <path
         style="font-variation-settings:normal;fill:none;fill-opacity:1;stroke:#000000;stroke-width:20;stroke-linecap:round;stroke-linejoin:round;stroke-miterlimit:4;stroke-dasharray:none;stroke-dashoffset:0;stroke-opacity:1"
         d="m 337.01526,220.16771 h 34.44986"
         id="path17-2" />
      <path
         style="font-variation-settings:normal;fill:none;fill-opacity:1;stroke:#000000;stroke-width:20;stroke-linecap:round;stroke-linejoin:round;stroke-miterlimit:4;stroke-dasharray:none;stroke-dashoffset:0;stroke-opacity:1"
         d="m 337.01526,253.732 h 34.44986"
         id="path17-2-3" />
    </g>
  </g>
</svg>
