<?xml version="1.0" encoding="UTF-8" standalone="no"?>
<!-- Created with Inkscape (http://www.inkscape.org/) -->

<svg
   width="512"
   height="512"
   viewBox="0 0 512 512"
   version="1.1"
   id="svg1"
   inkscape:version="1.3.2 (091e20e, 2023-11-25, custom)"
   sodipodi:docname="ink-dwp.svg"
   xmlns:inkscape="http://www.inkscape.org/namespaces/inkscape"
   xmlns:sodipodi="http://sodipodi.sourceforge.net/DTD/sodipodi-0.dtd"
   xmlns="http://www.w3.org/2000/svg"
   xmlns:svg="http://www.w3.org/2000/svg">
  <sodipodi:namedview
     id="namedview1"
     pagecolor="#ffffff"
     bordercolor="#000000"
     borderopacity="0.25"
     inkscape:showpageshadow="2"
     inkscape:pageopacity="0.0"
     inkscape:pagecheckerboard="0"
     inkscape:deskcolor="#d1d1d1"
     inkscape:document-units="px"
     inkscape:zoom="0.5"
     inkscape:cx="446"
     inkscape:cy="111"
     inkscape:window-width="1920"
     inkscape:window-height="991"
     inkscape:window-x="-9"
     inkscape:window-y="-9"
     inkscape:window-maximized="1"
     inkscape:current-layer="layer1" />
  <defs
     id="defs1" />
  <g
     inkscape:label="Layer 1"
     inkscape:groupmode="layer"
     id="layer1">
    <path
       style="fill:none;stroke:#000000;stroke-width:20;stroke-linecap:round;stroke-linejoin:round;stroke-dasharray:none"
       d="M 170.57165,198.74318 C 163.5228,54.732179 316.14693,33.650537 329.71305,154.94294 c 8.33747,74.54391 -16.6178,85.54414 -24.14446,125.03743 -10.20621,53.5532 4.90097,78.80391 16.08665,116.31082 3.59362,12.04985 4.02891,44.69411 -33.23839,51.84518 -37.2673,7.15105 -53.38287,-36.64918 -53.38287,-36.64918 l -27.19503,-87.60045 c -12.66051,-45.00436 -34.84158,-75.5852 -37.2673,-125.14356 z"
       id="path1"
       sodipodi:nodetypes="sssssccs" />
    <path
       d="m 76.136702,165.54225 49.422138,49.42213 -49.422138,49.42214 49.422138,49.42212 -49.422138,49.42215"
       id="path1-1"
       style="fill:none;stroke:#000000;stroke-width:20;stroke-dasharray:none;stroke-opacity:1" />
    <path
       d="m 431.56427,163.54225 -49.42214,49.42213 49.42214,49.42214 -49.42214,49.42212 49.42214,49.42215"
       id="path1-1-3"
       style="fill:none;stroke:#000000;stroke-width:20;stroke-dasharray:none;stroke-opacity:1" />
  </g>
</svg>
