<?xml version="1.0" encoding="UTF-8" standalone="no"?>
<!-- Uploaded to: SVG Repo, www.svgrepo.com, Generator: SVG Repo Mixer Tools -->

<svg
   fill="#000000"
   height="512"
   width="512"
   version="1.1"
   viewBox="0 0 512 512"
   enable-background="new 0 0 297.006 297.006"
   id="svg7"
   sodipodi:docname="ink-ldc.svg"
   inkscape:version="1.3.2 (091e20e, 2023-11-25, custom)"
   xmlns:inkscape="http://www.inkscape.org/namespaces/inkscape"
   xmlns:sodipodi="http://sodipodi.sourceforge.net/DTD/sodipodi-0.dtd"
   xmlns="http://www.w3.org/2000/svg"
   xmlns:svg="http://www.w3.org/2000/svg">
  <defs
     id="defs7" />
  <sodipodi:namedview
     id="namedview7"
     pagecolor="#ffffff"
     bordercolor="#000000"
     borderopacity="0.25"
     inkscape:showpageshadow="2"
     inkscape:pageopacity="0.0"
     inkscape:pagecheckerboard="0"
     inkscape:deskcolor="#d1d1d1"
     inkscape:zoom="1"
     inkscape:cx="376.5"
     inkscape:cy="250.5"
     inkscape:window-width="1920"
     inkscape:window-height="991"
     inkscape:window-x="-9"
     inkscape:window-y="-9"
     inkscape:window-maximized="1"
     inkscape:current-layer="svg7" />
  <g
     id="g7"
     transform="matrix(1.055679,0,0,1.055679,99.228022,99.229029)">
    <path
       d="m 268.003,204.856 c -22.726,0 -41.214,-26.146 -41.214,-58.285 0,-32.139 18.488,-58.286 41.214,-58.286 3.62,0 6.957,-1.956 8.726,-5.115 1.768,-3.159 1.691,-7.026 -0.201,-10.112 L 249.457,28.915 c -1.601,-2.61 -4.309,-4.344 -7.351,-4.703 -3.042,-0.362 -6.078,0.694 -8.245,2.859 -9.414,9.414 -24.73,9.412 -34.143,0 -4.56,-4.559 -7.071,-10.623 -7.072,-17.072 C 192.645,4.477 188.168,0 182.646,0 H 114.36 c -5.522,0 -9.999,4.477 -10,9.999 -0.001,6.449 -2.513,12.513 -7.072,17.072 -9.412,9.414 -24.73,9.412 -34.143,0 -2.167,-2.165 -5.209,-3.221 -8.245,-2.859 -3.041,0.359 -5.75,2.093 -7.351,4.703 l -27.07,44.143 c -1.893,3.086 -1.97,6.953 -0.201,10.112 1.769,3.159 5.106,5.115 8.726,5.115 22.726,0 41.214,26.147 41.214,58.286 0,32.139 -18.488,58.285 -41.214,58.285 -3.41,0 -6.585,1.738 -8.423,4.61 -1.839,2.872 -2.086,6.483 -0.657,9.58 l 17.071,36.992 c 1.861,4.032 6.158,6.359 10.549,5.701 0.709,-0.104 71.307,-10.089 91.422,29.771 1.685,3.339 5.092,5.459 8.831,5.495 0.032,0 0.064,0 0.097,0 3.702,0 7.105,-2.047 8.839,-5.323 21.623,-40.866 92.279,-32.842 92.99,-32.756 4.199,0.513 8.263,-1.672 10.154,-5.455 l 17.071,-34.144 c 1.55,-3.1 1.384,-6.781 -0.438,-9.729 -1.822,-2.947 -5.041,-4.742 -8.507,-4.742 z m -22.988,33.619 c -18.797,-1.097 -69.54,-0.796 -97.039,30.834 -21.16,-24.353 -57.333,-28.774 -80.819,-28.774 -5.979,0 -11.134,0.287 -15.011,0.604 l -8.528,-18.48 c 11.223,-3.454 21.427,-10.904 29.6,-21.802 10.963,-14.617 17,-33.895 17,-54.285 0,-20.39 -6.037,-39.668 -17,-54.285 C 65.43,81.903 55.801,74.649 45.201,71 l 13.7,-22.34 c 16.773,9.24 38.326,6.756 52.529,-7.446 5.927,-5.927 9.961,-13.243 11.798,-21.214 h 50.549 c 1.837,7.971 5.871,15.287 11.798,21.214 14.204,14.203 35.756,16.686 52.529,7.446 l 13.7,22.34 c -10.6,3.649 -20.229,10.903 -28.016,21.286 -10.963,14.617 -17,33.896 -17,54.285 0,20.39 6.037,39.668 17,54.285 8.075,10.767 18.131,18.168 29.195,21.676 z"
       id="path7" />
  </g>
</svg>
