<?xml version="1.0" encoding="UTF-8" standalone="no"?>
<!-- Created with Inkscape (http://www.inkscape.org/) -->

<svg
   width="512"
   height="512"
   viewBox="0 0 512 512"
   version="1.1"
   id="svg1"
   inkscape:version="1.3.2 (091e20e, 2023-11-25, custom)"
   sodipodi:docname="ink-erd.svg"
   inkscape:export-filename="ink-erd.png"
   inkscape:export-xdpi="96"
   inkscape:export-ydpi="96"
   xmlns:inkscape="http://www.inkscape.org/namespaces/inkscape"
   xmlns:sodipodi="http://sodipodi.sourceforge.net/DTD/sodipodi-0.dtd"
   xmlns="http://www.w3.org/2000/svg"
   xmlns:svg="http://www.w3.org/2000/svg">
  <sodipodi:namedview
     id="namedview1"
     pagecolor="#ffffff"
     bordercolor="#000000"
     borderopacity="0.25"
     inkscape:showpageshadow="2"
     inkscape:pageopacity="0.0"
     inkscape:pagecheckerboard="0"
     inkscape:deskcolor="#d1d1d1"
     inkscape:document-units="px"
     inkscape:zoom="1"
     inkscape:cx="258.5"
     inkscape:cy="216.5"
     inkscape:window-width="1920"
     inkscape:window-height="1021"
     inkscape:window-x="-9"
     inkscape:window-y="-9"
     inkscape:window-maximized="1"
     inkscape:current-layer="layer1" />
  <defs
     id="defs1" />
  <g
     inkscape:label="Layer 1"
     inkscape:groupmode="layer"
     id="layer1">
    <path
       style="fill:none;stroke:#000000;stroke-width:20;stroke-linecap:round;stroke-linejoin:round;stroke-dasharray:none"
       d="M 85.262942,202.74318 C 78.21409,58.732181 230.83822,37.650539 244.40434,158.94294 c 8.33747,74.54391 -16.6178,85.54414 -24.14446,125.03743 -10.20621,53.5532 4.90097,78.80391 16.08665,116.31082 3.59362,12.04985 4.02891,44.69411 -33.23839,51.84518 -37.2673,7.15105 -53.38287,-36.64918 -53.38287,-36.64918 L 122.53024,327.88674 C 109.86973,282.88238 87.688661,252.30154 85.262942,202.74318 Z"
       id="path1"
       sodipodi:nodetypes="sssssccs" />
    <path
       id="path1-1"
       style="font-variation-settings:normal;fill:none;fill-opacity:1;stroke:#000000;stroke-width:18.7254;stroke-linecap:round;stroke-linejoin:round;stroke-miterlimit:4;stroke-dasharray:none;stroke-dashoffset:0;stroke-opacity:1"
       d="m 334.66933,327.31315 h 24.78989 m -23.4165,-117.09 h 20.42578 m -21.84778,-60.31506 h 23.41285 m -28.10619,119.79572 h 70.44229 M 327.3627,89.3627 h 72.67549 m -72.67549,0 v 289.39549"
       sodipodi:nodetypes="cccccccccccc" />
  </g>
</svg>
