<?xml version="1.0" encoding="UTF-8" standalone="no"?>
<!-- Created with Inkscape (http://www.inkscape.org/) -->

<svg
   width="512"
   height="512"
   viewBox="0 0 512 512"
   version="1.1"
   id="svg1"
   inkscape:version="1.3.2 (091e20e, 2023-11-25, custom)"
   sodipodi:docname="ink-omv.svg"
   xmlns:inkscape="http://www.inkscape.org/namespaces/inkscape"
   xmlns:sodipodi="http://sodipodi.sourceforge.net/DTD/sodipodi-0.dtd"
   xmlns="http://www.w3.org/2000/svg"
   xmlns:svg="http://www.w3.org/2000/svg">
  <sodipodi:namedview
     id="namedview1"
     pagecolor="#ffffff"
     bordercolor="#000000"
     borderopacity="0.25"
     inkscape:showpageshadow="2"
     inkscape:pageopacity="0.0"
     inkscape:pagecheckerboard="0"
     inkscape:deskcolor="#d1d1d1"
     inkscape:document-units="px"
     inkscape:zoom="1.044997"
     inkscape:cx="269.37876"
     inkscape:cy="286.60369"
     inkscape:window-width="1920"
     inkscape:window-height="991"
     inkscape:window-x="-9"
     inkscape:window-y="-9"
     inkscape:window-maximized="1"
     inkscape:current-layer="layer1" />
  <defs
     id="defs1" />
  <g
     inkscape:label="Layer 1"
     inkscape:groupmode="layer"
     id="layer1">
    <path
       id="path10-4"
       style="font-variation-settings:normal;display:inline;fill:none;fill-opacity:1;stroke:#000000;stroke-width:20;stroke-linecap:round;stroke-linejoin:round;stroke-miterlimit:4;stroke-dasharray:none;stroke-dashoffset:0;stroke-opacity:1;stop-color:#000000"
       inkscape:label="path10-4"
       d="m 263.48272,119.11326 c -34.13779,-0.45439 -60.75132,5.26607 -60.75132,5.26607 0,0 -13.13736,16.50328 -2.11663,52.91605 10.78231,35.62509 -16.66786,43.83764 -0.2437,89.37703 h 110.07232 c -16.19178,-45.27099 11.10167,-53.53462 0.34349,-89.07996 -11.02072,-36.41277 2.11664,-52.91605 2.11664,-52.91605 -16.83289,-3.87556 -33.90361,-5.3566 -49.4208,-5.56314 z" />
    <path
       id="path4-6"
       style="fill:none;stroke:#000000;stroke-width:20;stroke-dasharray:none;stroke-opacity:1"
       d="M 408.81732,266.67241 H 101.99714 c -36.00824,58.18413 0,116.36827 0,116.36827 h 306.82017 c 0,0 36.00825,-58.18414 10e-6,-116.36827 z"
       sodipodi:nodetypes="ccccc" />
    <path
       id="path4-8-0"
       style="fill:none;stroke:#000000;stroke-width:20;stroke-dasharray:none;stroke-opacity:1"
       d="m 130.4987,205.46852 c -11.29389,21.46049 -13.90173,42.89238 -12.86231,61.20389 h 79.87536 c -7.67809,-29.36333 4.56859,-41.58487 5.61652,-61.20389 z m 182.81097,0 c -0.93724,19.72297 -13.24526,31.91452 -5.69312,61.20389 h 86.97029 c 1.03942,-18.31151 -1.56843,-39.7434 -12.86231,-61.20389 z" />
  </g>
</svg>
