<?xml version="1.0" encoding="UTF-8" standalone="no"?>
<!-- Created with Inkscape (http://www.inkscape.org/) -->

<svg
   width="512"
   height="512"
   viewBox="0 0 512 512"
   version="1.1"
   id="svg1"
   inkscape:version="1.3.2 (091e20e, 2023-11-25, custom)"
   sodipodi:docname="ink-omv.svg"
   xmlns:inkscape="http://www.inkscape.org/namespaces/inkscape"
   xmlns:sodipodi="http://sodipodi.sourceforge.net/DTD/sodipodi-0.dtd"
   xmlns="http://www.w3.org/2000/svg"
   xmlns:svg="http://www.w3.org/2000/svg">
  <sodipodi:namedview
     id="namedview1"
     pagecolor="#ffffff"
     bordercolor="#000000"
     borderopacity="0.25"
     inkscape:showpageshadow="2"
     inkscape:pageopacity="0.0"
     inkscape:pagecheckerboard="0"
     inkscape:deskcolor="#d1d1d1"
     inkscape:document-units="px"
     inkscape:zoom="1.044997"
     inkscape:cx="268.90031"
     inkscape:cy="286.60371"
     inkscape:window-width="1920"
     inkscape:window-height="1009"
     inkscape:window-x="-8"
     inkscape:window-y="-8"
     inkscape:window-maximized="1"
     inkscape:current-layer="layer1" />
  <defs
     id="defs1" />
  <g
     inkscape:label="Layer 1"
     inkscape:groupmode="layer"
     id="layer1">
    <path
       id="path10-4"
       style="font-variation-settings:normal;display:inline;vector-effect:none;fill:none;fill-opacity:1;stroke:#000000;stroke-width:8;stroke-linecap:round;stroke-linejoin:round;stroke-miterlimit:4;stroke-dasharray:none;stroke-dashoffset:0;stroke-opacity:1;-inkscape-stroke:none;stop-color:#000000"
       inkscape:label="path10-4"
       d="M 262.20312 140.02148 C 233.47462 139.63909 211.07812 144.45312 211.07812 144.45312 C 211.07812 144.45312 200.02244 158.34138 209.29688 188.98438 C 218.37069 218.96452 195.27012 225.87575 209.0918 264.19922 L 301.72266 264.19922 C 288.09654 226.10162 311.06522 219.1474 302.01172 189.23438 C 292.73729 158.59138 303.79297 144.70312 303.79297 144.70312 C 289.62733 141.44166 275.26154 140.1953 262.20312 140.02148 z " />
    <path
       id="path4-6"
       style="fill:none;stroke:#000000;stroke-width:8;stroke-dasharray:none;stroke-opacity:1"
       d="M 384.5088,264.19922 H 126.30566 c -30.30257,48.96459 0,97.92919 0,97.92919 h 258.20313 c 0,0 30.30258,-48.9646 1e-5,-97.92919 z"
       sodipodi:nodetypes="ccccc" />
    <path
       id="path4-8-0"
       style="fill:none;stroke:#000000;stroke-width:8;stroke-dasharray:none;stroke-opacity:1"
       d="M 150.29102 212.69336 C 140.7867 230.75334 138.59208 248.78925 139.4668 264.19922 L 206.68555 264.19922 C 200.22409 239.48864 210.53023 229.20366 211.41211 212.69336 L 150.29102 212.69336 z M 304.13477 212.69336 C 303.34604 229.29114 292.98828 239.55088 299.34375 264.19922 L 372.5332 264.19922 C 373.40792 248.78925 371.2133 230.75334 361.70898 212.69336 L 304.13477 212.69336 z " />
  </g>
</svg>
