<?xml version="1.0" encoding="utf-8" ?><svg xmlns="http://www.w3.org/2000/svg" xmlns:xlink="http://www.w3.org/1999/xlink" width="397" height="354" viewBox="0 0 397 354"><path fill="#253952" transform="scale(0.94832 0.94832)" d="M86.7876 88.118C86.7705 87.1213 86.9496 86.8354 86.4185 86.1979C78.9414 83.9742 73.7437 78.2819 75.6723 70.1507C76.8987 64.98 81.9424 61.1424 87.1527 60.8421C94.6166 60.4118 102.027 60.5317 109.492 60.618L135.692 60.7454C140.029 60.7849 144.509 60.74 148.734 60.6876C155.567 60.603 162.483 60.1001 166.135 67.1707C170.743 76.0914 165.565 83.9197 156.585 86.1866C156.841 90.8455 156.651 95.9482 156.651 100.657L156.619 127.372C156.594 133.355 156.149 145.667 157.763 151.03C159.446 156.626 164.846 164.785 167.637 170.227C171.648 178.052 175.936 185.861 180.206 193.557C189.074 209.834 197.843 226.166 206.512 242.55C213.509 255.776 221.769 270.07 227.98 283.485C232.072 292.325 229.225 306.844 222.557 313.4C212.711 324.29 203.897 323.231 190.842 323.233L168.125 323.229L99.1002 323.229L58.1474 323.227C51.9884 323.227 43.2644 323.79 37.3919 322.894C24.1564 320.873 14.3109 307.738 13.6786 295.091C13.4669 290.752 14.1857 286.418 15.7868 282.38C17.0763 279.079 19.0312 275.762 20.7452 272.644C23.3486 267.992 25.8833 263.302 28.3485 258.575C41.8915 232.76 55.6339 207.05 69.5744 181.447L78.3644 165.217C82.3548 157.877 85.7702 152.661 86.5217 144.084C87.0469 130.577 86.5081 116.48 86.699 102.91C86.7679 98.0163 86.5721 92.9987 86.7876 88.118ZM151.313 316.798L183.872 316.795C189.666 316.81 200.284 317.37 205.417 316.221C209.603 315.282 213.445 313.198 216.514 310.201C220.836 305.892 223.266 300.042 223.27 293.939C223.291 290.81 222.425 286.91 221.083 284.093C216.847 275.203 211.7 266.578 207.134 257.856C194.75 234.488 182.24 211.187 169.603 187.954C165.53 180.725 161.569 173.435 157.721 166.084C155.961 162.733 151.781 155.09 151.062 151.596C149.449 143.748 150.001 132.428 150.006 124.149L150.016 86.163C137.702 86.3119 125.141 86.069 112.792 86.1077C108.65 86.1207 96.9315 86.4262 93.4539 86.0148C92.979 87.3742 93.2829 94.727 93.2818 96.7038L93.2657 123.556C93.2909 147.825 95.0908 148.691 83.3337 170.295C80.0854 176.228 76.8693 182.177 73.6856 188.144L35.1765 260.083L27.4341 274.557C25.3841 278.385 22.401 283.468 21.283 287.521C19.7599 292.913 20.2375 298.673 22.6276 303.74C25.2589 309.274 29.6256 313.288 35.4024 315.331C37.4948 316.073 39.6782 316.527 41.8927 316.681C45.4055 316.952 50.6056 316.783 54.2638 316.787L76.6544 316.821L151.313 316.798ZM155.772 79.6294C157.848 78.9789 159.134 78.2928 160.275 76.2193C161.912 73.2944 160.735 69.3357 157.712 67.8654C156.839 67.441 154.15 67.2783 153.166 67.274C140.399 67.2185 127.628 67.2475 114.86 67.257L96.6285 67.2647C93.958 67.2649 89.9373 67.1432 87.3452 67.2987C83.724 68.0281 81.2669 70.8145 82.1309 74.5899C82.5249 76.253 83.6053 77.6713 85.104 78.493C87.8442 80.0186 101.525 79.6552 105.223 79.6626L131.525 79.6727L147.238 79.6851C149.369 79.6952 153.785 79.8523 155.772 79.6294Z"/><path fill="#2A3E54" transform="scale(0.94832 0.94832)" d="M86.7876 88.118C88.1249 92.2747 87.5511 102.941 87.336 107.655L87.172 99.4746L87.1367 134.825C87.1183 136.581 87.6318 142.922 86.5217 144.084C87.0469 130.577 86.5081 116.48 86.699 102.91C86.7679 98.0163 86.5721 92.9987 86.7876 88.118Z"/><path fill="#253952" transform="scale(0.94832 0.94832)" d="M91.9592 209.108C93.8238 208.763 97.2724 209.073 99.2569 209.14C118.593 209.797 131.52 227.238 151.034 226.646C157.458 226.452 164.386 224.449 169.44 220.316C173.074 217.344 174.2 219.023 176.224 222.43C178.071 225.824 179.809 229.329 181.6 232.759C184.78 238.805 187.991 244.834 191.233 250.847C195.537 258.664 199.767 266.522 203.924 274.419C206.691 279.611 211.677 287.638 212.505 293.467C213.198 298.346 207.756 305.282 202.729 305.775C198.27 306.213 192.967 306.043 188.286 306.043L158.437 306.048L81.7096 306.045L60.8406 306.099C54.2452 306.174 41.3614 307.264 35.874 303.546C31.5109 300.589 29.9365 293.431 32.0681 288.61C34.045 284.139 36.5697 279.891 38.8908 275.448L55.4301 244.436L64.8836 226.496C65.7898 224.809 69.3608 218.028 70.4888 217.006C75.5611 212.408 85.5366 209.766 91.9592 209.108ZM154.688 299.694L180.586 299.7C187.293 299.7 195.419 299.753 202.069 299.22C206.591 296.141 206.454 293.246 204.155 288.643C201.579 283.486 198.753 278.513 195.999 273.454L182.217 247.782C179.113 242.132 173.704 232.785 171.143 227.229C160.775 233.326 150.777 234.419 139.076 231.588C122.954 227.689 111.986 213.987 94.2447 215.596C89.358 215.991 79.0335 217.717 75.5374 221.319C74.2929 222.601 69.5664 232.14 68.4539 234.251L54.9105 259.749C49.5288 269.97 43.6481 279.95 38.6139 290.361C37.2327 293.217 37.3858 296.122 40.0059 298.216C40.8451 298.887 42.0492 299.29 43.1125 299.409C47.9339 299.788 52.8745 299.709 57.7095 299.708L80.1449 299.699L154.688 299.694Z"/><path fill="#58AF8E" transform="scale(0.94832 0.94832)" d="M325.655 241.212L325.791 241.004C328.165 237.422 332.762 231.941 335.456 228.604L349.937 210.446L373.602 180.855C377.544 175.929 381.124 170.872 385.372 166.146C388.293 162.896 393.106 161.612 396.709 164.608C401.956 168.971 407.555 173.494 412.143 178.547C414.332 180.957 414.286 185.667 412.64 188.391C409.436 193.385 405.198 197.88 401.454 202.539L382.538 226.272C378.393 231.419 373.399 237.251 369.586 242.619C368.312 243.764 365.732 247.22 364.568 248.718C362.679 250.839 360.311 254.162 358.453 256.473C353.164 262.965 347.941 269.51 342.783 276.107C339.654 280.039 336.417 284.425 332.631 287.724C330.773 289.344 328.012 289.684 325.623 289.429C321.155 288.952 318.271 284.111 315.211 281.311C302.786 267.566 289.6 254.467 277.498 240.441C275.851 238.531 275.028 236.843 275.497 234.33C275.697 233.205 276.373 231.047 277.149 230.191C281.457 225.484 285.829 220.906 290.399 216.431C299.046 207.966 305.808 219.542 311.356 225.217C314.769 228.709 317.901 232.349 321.207 235.928C322.641 237.48 324.319 239.266 325.5 240.983L325.655 241.212ZM326.286 249.552C325.297 249.232 324.36 248.945 323.567 248.259C319.835 245.024 316.37 240.885 313.035 237.197C307.732 231.296 302.369 225.451 296.946 219.661C293.538 223.052 284.637 231.694 282.071 235.326C285.531 240.015 293.969 248.313 298.169 253.002L315.48 271.669C318.865 275.327 323.245 280.915 327.202 283.581C330.917 280.332 337.263 271.813 340.652 267.598L369.318 231.507L395.725 198.578C399.009 194.48 405.013 187.634 407.771 183.57C405.396 181.42 402.947 179.361 400.559 177.196C398.155 175.015 394.335 171.002 391.757 169.229C389.258 172.07 386.848 175.319 384.467 178.29L373.983 191.26L346.191 226.207L335.678 239.5C333.248 242.563 329.619 247.844 326.286 249.552Z"/><path fill="#253952" transform="scale(0.94832 0.94832)" d="M287.904 42.5826C288.795 42.4524 290.244 42.5791 291.138 42.6668C300.585 43.5937 308.244 51.5834 309.664 60.8061C314.78 60.6066 319.902 60.5798 325.02 60.7258C333.314 61.035 337.344 66.509 337.009 74.4892C340.742 73.713 360.414 74.3983 365.273 74.3729C366.509 74.3664 369.525 75.4709 370.741 76.0704C374.849 78.1294 377.958 81.7507 379.373 86.1224C380.908 90.8101 380.435 99.1987 380.427 104.361L380.4 126.606L380.448 143.827C380.459 147.256 380.977 152.784 379.474 155.727C376.674 157.014 373.999 156.628 373.873 152.938C373.68 147.298 373.885 141.556 373.919 135.898L373.865 104.449C373.863 100.571 373.879 96.6977 373.812 92.8216C373.752 89.2983 372.975 86.819 370.529 84.2325C366.27 79.7295 358.959 80.7111 353.255 80.7144L336.965 80.7129C337.11 83.2012 338.022 96.2258 335.407 96.634C331.77 97.2018 325.079 97.0068 321.222 97.0042L296.37 96.9892L262.076 97.0014C257.238 97.0104 252.398 97.0295 247.56 97.0266C245.47 97.0253 243.445 97.2942 241.694 95.922C240.912 92.7945 241.231 84.328 241.256 80.7735L224.545 80.7285C209.122 80.7184 203.892 81.8133 204.572 99.1563C204.75 103.708 204.593 109.482 204.588 114.147L204.566 176.969C204.54 182.574 204.549 188.18 204.592 193.785C204.624 197.208 204.687 200.637 204.658 204.06C204.645 205.593 204.123 208.167 202.173 208.221C199.918 208.282 197.812 206.847 197.873 204.41C197.995 199.581 197.997 194.759 198.002 189.926L198.021 155.106L198.015 114.354C198.004 106.873 197.953 99.3552 198.031 91.8697C198.017 86.6384 200.402 82.1601 204.164 78.6469C208.145 74.8423 213.449 74.1749 218.738 74.2348C226.192 74.3192 233.764 74.0425 241.223 74.3385C241.157 73.3161 241.169 72.2901 241.26 71.2696C241.496 68.2504 242.948 65.4566 245.284 63.5293C246.722 62.3679 248.406 61.5503 250.207 61.139C253.301 60.4274 265.43 60.6567 268.83 61.0248C270.436 50.6653 277.664 44.093 287.904 42.5826ZM247.982 90.532C262.18 90.3647 277.032 90.7149 291.34 90.7305C304.401 90.6848 317.463 90.7071 330.523 90.7977C330.438 86.4946 330.393 82.1909 330.39 77.887C330.374 75.6413 330.591 73.0904 330.155 70.9015C329.983 70.0407 329.677 69.2939 329.043 68.6682C325.431 65.1008 308.442 68.9484 304.649 66.9778C303.366 66.3114 302.554 59.8058 301.933 58.2603C299.748 52.8258 294.894 48.8979 288.872 49.2202C288.601 49.2347 288.374 49.2812 288.11 49.3411C284.196 49.8777 281.048 51.2589 278.577 54.4873C277.425 56.0136 276.599 57.7599 276.148 59.6182C275.492 62.3214 276.019 66.774 272.456 67.2935C267.262 68.051 252.25 65.3373 249.145 69.1009C247.08 71.6034 248.088 86.4129 247.982 90.532Z"/><path fill="#2A3E54" transform="scale(0.94832 0.94832)" d="M376.591 252.237C378.385 252.037 378.627 252.455 380.088 253.584C380.691 256.728 380.438 266.228 380.438 269.888L380.471 301.978C380.498 308.808 380.141 312.969 375.059 318.213C368.707 324.767 360.556 323.238 352.063 323.234L325.231 323.224L234.869 323.231C232.327 322.726 232.336 321.356 231.85 319.1C232.45 318.419 233.349 317.549 234 316.877C236.807 316.75 240.662 316.912 243.562 316.909L264.486 316.87L332.228 316.894C338.331 316.865 344.433 316.872 350.536 316.915C354.412 316.948 358.413 317.201 362.271 316.901C364.395 316.736 366.277 316.326 368.101 315.189C370.05 313.975 372.031 312.084 372.84 309.884C374.64 304.987 373.821 273.287 373.801 265.613C373.793 262.14 373.267 257.705 374.172 254.362C374.504 253.134 375.553 252.781 376.591 252.237Z"/><path fill="#253952" transform="scale(0.94832 0.94832)" d="M241.182 129.371L311.041 129.423L329.348 129.398C332.921 129.378 336.561 129.291 340.094 129.387C341.802 129.498 345.396 129.473 345.231 132.047C344.93 136.728 340.852 136.026 337.801 135.979L269.687 135.956L247.762 135.977C245.718 135.98 228.936 137.584 233.739 130.9C234.985 129.166 239.047 129.348 241.182 129.371Z"/><path fill="#253952" transform="scale(0.94832 0.94832)" d="M235.53 168.267C243.9 167.997 252.841 168.221 261.256 168.22L311.36 168.216C321.886 168.21 332.529 168.037 343.028 168.401C344.742 168.461 346.977 172.78 342.939 174.463C340.753 174.946 328.782 174.765 325.52 174.762L288.09 174.754L254.37 174.766C248.608 174.789 242.681 174.959 236.938 174.71C232.97 174.538 231.604 170.769 235.53 168.267Z"/><path fill="#2A3E54" transform="scale(0.94832 0.94832)" d="M268.089 206.88C269.624 206.851 275.505 206.49 276.631 207.779C278.041 209.394 278.087 213.011 274.948 213.194C271.521 213.394 268.038 213.318 264.565 213.319C257.347 213.278 250.129 213.305 242.912 213.398C240.919 213.448 235.405 213.863 234.293 212.575C232.071 210.001 233.504 207.173 236.934 207.036C240.951 206.875 244.598 206.943 248.457 206.951L268.089 206.88Z"/><path fill="#253952" transform="scale(0.94832 0.94832)" d="M236.605 246.072C241.036 246.071 263.37 245.467 265.824 246.38C266.927 246.791 267.568 248.5 268.046 249.484C267.104 251.231 266.634 252.202 264.563 252.517L247.389 252.528C243.684 252.563 239.083 252.98 235.442 252.401C234.172 252.2 233.471 250.868 232.855 249.84C233.801 247.155 233.68 246.606 236.605 246.072Z"/><defs><linearGradient id="gradient_0" gradientUnits="userSpaceOnUse" x1="368.56567" y1="245.67494" x2="367.37952" y2="244.94514"><stop offset="0" stop-color="#E8F0F0" stop-opacity="0"/><stop offset="1" stop-color="#DDF3D8" stop-opacity="0.0078431377"/></linearGradient></defs><path fill="url(#gradient_0)" transform="scale(0.94832 0.94832)" d="M369.586 242.619L370.44 242.363C370.493 243.822 366.299 248.306 364.965 248.967L364.568 248.718C365.732 247.22 368.312 243.764 369.586 242.619Z"/></svg>