<?xml version="1.0" standalone="no"?>
<!DOCTYPE svg PUBLIC "-//W3C//DTD SVG 20010904//EN"
 "http://www.w3.org/TR/2001/REC-SVG-20010904/DTD/svg10.dtd">
<svg version="1.0" xmlns="http://www.w3.org/2000/svg"
 width="800.000000pt" height="800.000000pt" viewBox="0 0 800.000000 800.000000"
 preserveAspectRatio="xMidYMid meet">
<metadata>
Created by potrace 1.14, written by Peter Selinger 2001-2017
</metadata>
<g transform="translate(0.000000,800.000000) scale(0.100000,-0.100000)"
fill="#000000" stroke="none">
<path d="M3694 6999 c-145 -15 -423 -70 -484 -96 -18 -8 -14 -6 -70 -22 -52
-15 -158 -49 -180 -58 -8 -3 -17 -7 -20 -8 -47 -15 -273 -121 -311 -146 -24
-16 -49 -29 -55 -29 -6 0 -28 -12 -50 -26 -21 -14 -52 -34 -68 -43 -17 -9 -66
-41 -110 -71 -43 -30 -86 -59 -95 -65 -8 -5 -22 -18 -29 -27 -7 -10 -18 -18
-24 -18 -48 0 -554 -513 -588 -596 -4 -11 -19 -33 -32 -50 -37 -44 -108 -152
-108 -163 0 -5 -3 -11 -7 -13 -11 -4 -30 -40 -132 -243 -50 -100 -91 -187 -91
-196 0 -8 -6 -24 -14 -35 -8 -11 -27 -63 -42 -115 -14 -52 -30 -98 -34 -104
-4 -5 -8 -17 -8 -25 -2 -17 -38 -161 -52 -206 -31 -94 -60 -405 -60 -634 0
-229 29 -540 60 -634 14 -45 50 -189 52 -206 0 -8 4 -19 8 -25 4 -5 18 -46 30
-90 12 -43 31 -95 41 -114 11 -20 19 -42 19 -50 0 -9 41 -96 91 -196 102 -203
121 -239 132 -243 4 -2 7 -8 7 -13 0 -10 82 -133 119 -179 11 -14 21 -29 21
-33 0 -19 132 -170 270 -310 156 -160 291 -280 328 -291 l22 -7 0 1198 c0 659
5 1255 10 1325 10 134 35 299 50 326 5 10 18 51 30 92 34 123 152 364 222 458
24 31 57 77 72 102 31 48 280 300 296 300 6 0 47 28 91 61 82 63 140 98 239
144 30 14 68 32 84 41 39 20 250 90 311 103 77 16 190 31 234 31 22 0 43 5 46
10 4 6 57 10 125 10 68 0 121 -4 125 -10 3 -5 25 -10 48 -10 74 0 320 -43 342
-60 6 -4 55 -22 110 -39 54 -17 102 -35 105 -39 3 -4 46 -27 95 -51 50 -25
118 -64 152 -88 34 -24 64 -43 68 -43 23 0 221 -181 331 -302 l69 -78 429 425
429 425 -21 23 c-12 13 -22 26 -22 29 0 14 -269 271 -375 358 -136 111 -358
251 -549 346 -104 52 -197 94 -206 94 -8 0 -24 6 -35 14 -11 7 -63 26 -115 41
-52 15 -100 31 -105 36 -10 7 -202 56 -250 63 -11 2 -27 6 -35 10 -8 3 -67 13
-130 22 -135 19 -662 28 -806 13z"/>
<path d="M3835 5263 c-11 -2 -55 -11 -98 -19 -44 -8 -86 -19 -95 -25 -16 -9
-134 -54 -174 -66 -10 -3 -18 -9 -18 -14 0 -5 -5 -9 -10 -9 -6 0 -57 -30 -113
-67 -106 -70 -249 -205 -302 -285 -5 -9 -25 -36 -42 -61 -49 -68 -122 -214
-144 -287 -11 -36 -23 -72 -26 -80 -3 -8 -7 -19 -8 -25 0 -5 -4 -17 -8 -25
-24 -55 -27 -254 -27 -1596 l0 -1424 43 -19 c23 -10 60 -27 82 -37 22 -10 42
-18 45 -19 3 -1 12 -5 20 -8 22 -9 128 -43 180 -58 56 -16 52 -14 70 -22 73
-32 345 -82 521 -98 247 -21 813 2 899 37 8 4 24 8 35 10 48 7 240 56 250 63
5 5 53 21 105 36 52 15 104 34 115 41 11 8 27 14 35 14 9 0 102 42 206 94 191
95 413 235 549 346 113 93 375 344 375 360 0 4 9 15 20 25 11 10 20 23 20 29
0 7 -190 202 -423 434 l-423 422 -84 -93 c-107 -119 -302 -297 -325 -297 -3 0
-34 -19 -68 -43 -34 -24 -102 -63 -152 -88 -49 -24 -92 -47 -95 -51 -3 -4 -51
-22 -105 -39 -55 -17 -104 -35 -110 -39 -22 -17 -268 -60 -340 -60 -23 0 -46
-5 -51 -10 -7 -7 -57 -10 -130 -8 l-119 3 -3 1533 -2 1532 -28 -1 c-15 -1 -36
-3 -47 -6z"/>
</g>
</svg>
